<?xml version="1.0" encoding="UTF-8" standalone="no"?>
<!DOCTYPE svg PUBLIC "-//W3C//DTD SVG 20010904//EN" "http://www.w3.org/TR/2001/REC-SVG-20010904/DTD/svg10.dtd">
<svg version="1.0" xmlns="http://www.w3.org/2000/svg" width="1535.000000pt" height="1370.000000pt" viewBox="0 0 1535.000000 1370.000000" preserveAspectRatio="xMidYMid meet">
<metadata>
Created by potrace 1.16, written by Peter Selinger 2001-2019
</metadata>
<g transform="translate(0.000000,1370.000000) scale(0.100000,-0.100000)" fill="#000000" stroke="none">
<path d="M6484 12714 l-56 -46 -56 11 c-145 29 -229 6 -544 -151 -119 -59 -223 -108 -231 -108 -8 0 -27 16 -41 35 -15 19 -35 35 -45 35 -41 0 -721 -338 -768 -382 l-22 -21 20 -38 19 -39 -41 -26 c-44 -27 -210 -121 -424 -239 -71 -39 -251 -139 -400 -222 -331 -185 -461 -253 -480 -253 -8 0 -21 13 -30 30 -29 57 -37 56 -205 -31 -85 -45 -161 -86 -169 -92 -8 -7 -22 -11 -31 -9 -18 3 -268 -135 -347 -191 -24 -17 -43 -37 -43 -44 0 -8 11 -31 25 -51 14 -20 25 -40 25 -44 0 -4 -32 -28 -72 -54 -316 -204 -427 -362 -370 -524 23 -64 92 -213 161 -350 26 -52 61 -126 77 -165 16 -38 46 -87 66 -108 37 -40 38 -40 99 -34 l61 5 28 -61 c15 -34 35 -86 45 -115 17 -52 17 -54 -3 -75 -11 -12 -28 -35 -36 -51 -22 -44 -7 -56 70 -56 34 0 65 -4 69 -9 3 -6 -15 -33 -40 -61 -25 -28 -45 -55 -45 -60 0 -17 38 -30 87 -30 76 0 82 -10 39 -65 -40 -53 -42 -63 -23 -90 12 -15 23 -17 75 -13 33 4 63 4 66 1 3 -3 -10 -27 -28 -52 -46 -64 -51 -83 -25 -107 21 -18 36 -20 138 -11 35 3 36 -17 3 -55 -49 -56 -56 -76 -37 -104 18 -28 38 -30 115 -9 30 8 58 11 62 7 4 -4 -10 -34 -32 -67 -69 -103 -53 -131 70 -122 91 7 97 2 52 -53 -16 -19 -34 -45 -41 -58 -28 -53 46 -77 158 -51 24 5 46 7 49 5 2 -3 -16 -33 -42 -67 -52 -71 -56 -92 -21 -115 22 -14 30 -14 100 0 43 9 81 14 86 11 13 -8 -1 -35 -48 -93 -48 -59 -47 -56 -33 -82 15 -28 53 -32 131 -14 39 9 73 14 75 11 6 -5 -30 -62 -67 -109 -28 -35 -20 -75 18 -84 23 -6 59 1 176 33 27 8 20 -8 -31 -72 -59 -72 -66 -90 -46 -110 26 -25 55 -27 134 -6 41 10 78 16 82 12 4 -3 -15 -39 -42 -79 -28 -41 -50 -79 -50 -86 0 -44 76 -47 175 -7 39 16 71 25 73 20 2 -5 -20 -35 -48 -66 -71 -80 -75 -88 -50 -113 29 -29 109 -27 179 5 30 14 58 24 62 23 5 -2 -20 -37 -56 -78 -35 -41 -64 -83 -65 -92 0 -10 11 -25 25 -34 21 -14 32 -15 73 -5 26 7 73 24 105 38 31 14 60 24 63 21 2 -3 -25 -40 -61 -82 -67 -80 -70 -84 -57 -102 26 -39 93 -41 191 -4 28 11 57 20 64 20 6 0 -16 -26 -50 -59 l-62 -58 -253 -7 c-2080 -57 -3447 -173 -3402 -290 36 -93 875 -180 2324 -241 698 -29 1277 -46 2335 -67 786 -16 3685 -16 4470 0 1735 35 2830 78 3655 143 950 74 1236 164 796 250 -388 76 -1458 151 -2706 189 -452 14 -570 20 -570 31 0 5 14 16 30 24 39 20 70 70 70 112 0 24 7 37 25 49 32 21 75 93 75 125 0 13 9 30 20 37 35 22 80 93 80 127 0 23 8 37 30 53 34 26 84 107 75 122 -10 16 4 48 25 55 27 9 92 108 84 129 -5 12 5 30 33 59 59 61 73 87 73 129 0 31 5 41 25 50 32 15 95 114 95 150 0 18 9 33 29 47 16 12 43 43 61 71 27 41 31 56 26 85 -6 31 -4 36 18 45 26 9 106 108 106 130 0 7 -9 28 -21 46 -11 19 -18 38 -15 43 4 5 35 19 71 31 94 31 132 74 122 138 -6 36 -4 39 60 97 85 76 205 221 266 322 26 44 67 131 91 194 24 63 65 158 90 213 42 91 48 98 68 90 45 -15 115 -10 145 12 19 14 61 85 133 230 58 115 131 257 163 315 68 126 74 177 31 269 -47 101 -92 144 -351 335 -57 41 -103 80 -103 87 0 6 11 30 25 53 29 50 28 51 -65 103 -118 65 -655 332 -669 332 -9 0 -32 -19 -51 -42 l-36 -41 -55 30 c-30 16 -110 60 -179 98 -69 37 -224 124 -345 192 -322 183 -376 213 -525 293 -179 96 -204 115 -195 149 22 86 22 85 -47 124 -63 35 -439 224 -578 290 -142 68 -155 69 -189 12 -25 -43 -28 -42 -218 54 -156 78 -337 152 -435 177 -44 12 -86 15 -139 11 -76 -5 -77 -5 -134 34 -32 21 -64 39 -73 39 -29 0 -80 -41 -116 -93 -55 -81 -68 -127 -64 -237 2 -91 1 -97 -30 -151 -115 -201 -140 -381 -67 -491 l25 -38 -48 -97 c-27 -54 -82 -170 -122 -258 -41 -88 -79 -166 -85 -173 -9 -10 -29 -1 -95 43 -95 64 -179 104 -289 139 -285 90 -612 41 -866 -129 -52 -36 -99 -65 -104 -65 -5 0 -23 33 -41 73 -17 39 -75 163 -127 274 l-95 201 29 43 c24 37 28 54 31 129 4 95 -14 174 -62 268 -23 45 -26 64 -29 189 -3 122 -6 145 -27 189 -31 63 -152 184 -185 184 -14 0 -48 -20 -81 -46z m-13 -100 c54 -27 158 -174 232 -329 49 -101 97 -256 103 -330 5 -61 3 -76 -18 -114 -25 -46 -72 -90 -85 -78 -3 4 5 20 20 35 72 75 75 185 10 342 -39 92 -185 353 -227 405 -20 24 -59 55 -88 70 l-53 26 40 -7 c22 -4 52 -13 66 -20z m2573 8 c-74 -26 -97 -44 -143 -112 -41 -63 -61 -114 -61 -161 0 -15 -9 -79 -20 -143 -26 -150 -20 -180 54 -251 85 -82 205 -151 811 -470 165 -87 347 -184 405 -215 58 -31 159 -85 225 -120 66 -35 161 -86 210 -113 50 -27 115 -63 145 -80 61 -33 283 -158 516 -290 83 -47 198 -113 255 -148 95 -56 176 -102 359 -201 36 -19 151 -79 255 -133 181 -93 222 -115 395 -215 41 -24 116 -65 165 -92 71 -38 84 -48 62 -48 -25 0 -156 64 -422 205 -101 54 -183 100 -530 300 -132 76 -343 195 -470 265 -126 70 -304 170 -395 222 -193 111 -250 141 -257 135 -2 -3 15 -18 39 -34 39 -26 361 -222 409 -249 12 -7 26 -17 32 -24 16 -17 -5 -6 -141 74 -59 34 -181 102 -272 151 -91 48 -219 118 -285 155 -190 107 -728 404 -985 545 -445 243 -505 277 -548 312 -50 41 -71 78 -87 153 -12 54 -12 55 -24 27 -14 -37 -14 -129 1 -180 7 -22 34 -64 61 -93 42 -46 48 -58 42 -82 -9 -37 -297 -622 -306 -622 -4 0 -19 14 -33 30 -30 36 -36 15 79 260 48 102 107 230 131 284 l44 100 -34 35 c-47 50 -56 72 -56 134 0 71 23 145 75 243 25 47 50 114 60 160 20 89 46 150 96 219 41 57 89 84 149 84 l45 0 -51 -17z m297 -67 c89 -19 102 -28 28 -19 -80 9 -232 -18 -281 -51 -46 -31 -44 -42 5 -24 46 16 68 9 167 -56 108 -71 142 -104 196 -186 23 -36 50 -71 58 -78 9 -7 14 -17 11 -21 -7 -12 34 -44 59 -45 12 -1 33 -9 47 -19 57 -40 161 -96 429 -230 339 -170 488 -248 593 -310 43 -25 79 -46 81 -46 4 0 472 -276 666 -393 370 -222 708 -430 940 -577 461 -292 486 -306 569 -304 44 1 51 0 35 -9 -33 -19 -124 -11 -199 17 -83 32 -154 73 -765 436 -866 515 -1135 673 -1455 855 -1149 649 -1585 916 -1585 969 0 23 59 69 112 87 66 23 190 25 289 4z m99 -89 c36 -14 104 -49 150 -77 47 -28 182 -98 300 -155 404 -197 638 -325 1390 -757 58 -33 148 -84 200 -112 52 -29 151 -85 220 -125 69 -41 197 -115 285 -166 88 -50 248 -142 355 -204 247 -142 368 -223 475 -316 70 -62 90 -86 119 -147 54 -113 55 -119 5 -151 -52 -35 -85 -31 -179 17 -65 33 -292 171 -490 298 -149 95 -188 119 -340 210 -74 45 -166 101 -205 126 -126 80 -317 197 -455 278 -74 43 -161 96 -192 117 -96 64 -431 255 -933 531 -121 66 -238 132 -260 146 -22 13 -66 39 -98 57 -31 18 -98 63 -148 101 -70 52 -86 69 -73 73 15 6 13 10 -14 25 -18 11 -32 22 -32 26 0 4 -13 10 -28 14 -15 3 -53 30 -84 59 -32 29 -91 75 -132 102 -42 27 -76 52 -76 56 0 3 39 5 88 4 68 -2 101 -9 152 -30z m-3119 3 c62 -21 52 -27 -39 -21 l-90 5 -73 -51 c-164 -111 -376 -245 -440 -277 -37 -19 -103 -56 -146 -81 -43 -26 -148 -84 -233 -129 -179 -95 -444 -250 -744 -436 -230 -142 -256 -158 -616 -389 -135 -86 -309 -192 -388 -236 -280 -154 -570 -332 -715 -437 -176 -128 -328 -227 -349 -227 -10 0 -34 6 -52 14 -128 53 -100 151 103 356 130 132 221 198 456 335 55 32 123 72 150 90 28 17 151 87 275 155 219 120 529 295 620 350 25 15 95 54 155 85 61 32 200 110 310 173 210 121 515 273 800 399 94 42 240 110 325 153 194 96 306 147 345 155 17 3 0 -9 -40 -28 -38 -19 -126 -65 -195 -104 -69 -38 -167 -87 -218 -108 -51 -21 -91 -39 -90 -41 2 -1 28 3 58 9 32 6 119 43 210 90 85 44 178 91 205 105 28 14 93 42 145 63 103 40 203 50 271 28z m51 -68 l33 -30 -30 -30 c-16 -17 -133 -83 -260 -147 -126 -64 -299 -154 -383 -200 -84 -46 -154 -84 -156 -84 -2 0 -55 -29 -117 -63 -175 -98 -196 -110 -469 -259 -140 -77 -361 -200 -490 -273 -129 -73 -401 -226 -605 -340 -356 -201 -493 -280 -860 -500 -93 -57 -181 -108 -195 -114 -108 -51 461 341 603 415 69 36 336 195 537 319 96 60 213 132 260 160 47 29 157 96 245 150 329 201 698 419 850 502 50 27 133 75 185 105 53 31 132 74 175 96 44 22 161 93 260 158 257 168 250 164 322 164 55 0 67 -3 95 -29z m2720 -120 c136 -77 606 -367 849 -525 74 -48 184 -119 244 -159 117 -75 503 -309 595 -360 980 -540 1589 -885 1725 -977 39 -27 102 -76 140 -109 39 -34 97 -75 130 -92 60 -30 60 -30 20 -25 -50 7 -202 80 -410 198 -88 50 -180 102 -205 116 -25 14 -61 35 -80 47 -19 12 -120 70 -225 130 -104 59 -206 118 -225 130 -19 12 -141 83 -270 157 -129 74 -323 186 -430 248 -220 127 -472 270 -477 270 -1 0 -38 19 -80 43 -43 23 -91 48 -108 55 l-30 12 27 -23 c30 -24 137 -87 388 -227 166 -92 382 -217 680 -390 102 -59 327 -190 500 -290 173 -101 380 -221 460 -269 80 -47 214 -120 299 -163 85 -43 150 -78 144 -78 -22 0 -144 54 -266 118 -227 120 -291 154 -332 177 -22 12 -94 51 -160 85 -189 99 -391 208 -635 340 -768 418 -1347 715 -1640 842 -332 143 -565 257 -682 335 -63 41 -110 90 -137 140 -25 48 -5 203 27 203 8 0 96 -51 196 -114 99 -62 242 -147 316 -188 74 -42 268 -149 430 -239 162 -89 391 -221 508 -291 219 -132 350 -203 359 -195 12 12 -210 147 -850 517 -97 56 -180 107 -183 112 -4 5 8 2 26 -7 17 -9 36 -15 41 -13 11 4 -121 93 -366 246 -241 152 -355 225 -355 229 0 6 10 3 42 -16z m-2596 -3 c16 -26 -135 -130 -506 -350 -135 -80 -281 -164 -325 -188 -224 -120 -819 -458 -1495 -847 -85 -49 -182 -104 -215 -122 -87 -48 -320 -182 -481 -277 -165 -98 -208 -117 -107 -48 39 27 70 50 68 52 -2 2 -97 -44 -212 -103 -228 -118 -220 -113 -478 -263 -99 -58 -183 -106 -186 -108 -4 -2 -12 3 -19 11 -22 26 13 51 495 353 182 114 503 307 705 424 189 110 725 395 1252 666 419 216 524 271 713 375 231 127 517 291 558 319 31 22 209 118 219 118 4 0 10 -5 14 -12z m-321 -592 c-75 -50 -500 -304 -700 -416 -55 -31 -266 -153 -470 -271 -203 -119 -451 -259 -550 -313 -99 -54 -259 -142 -355 -196 -96 -54 -254 -140 -350 -193 -201 -109 -281 -155 -510 -294 -191 -115 -390 -226 -397 -219 -7 7 110 101 206 165 109 73 319 194 786 454 204 113 460 255 570 317 110 62 342 191 515 287 437 244 482 271 507 301 13 16 161 96 385 208 334 168 415 207 363 170z m2785 -91 c53 -53 53 -55 36 -74 -10 -11 -22 -18 -27 -16 -4 3 -20 -11 -35 -30 -31 -42 -38 -41 -23 3 19 54 4 59 -25 9 -38 -63 -44 -54 -11 16 15 31 25 64 23 74 -3 11 -53 -80 -125 -224 -147 -295 -193 -371 -193 -320 0 17 265 550 292 590 11 15 23 27 27 27 3 0 31 -25 61 -55z m-2142 -32 c17 -38 65 -147 107 -243 72 -163 76 -177 63 -200 -7 -14 -18 -25 -23 -25 -9 0 -110 195 -191 372 l-51 111 26 26 c14 14 28 26 32 26 3 0 20 -30 37 -67z m1027 -164 c322 -40 602 -217 730 -462 42 -81 28 -77 -27 8 -173 264 -469 420 -798 419 -105 0 -141 -5 -225 -28 -118 -33 -219 -78 -302 -134 -103 -70 -272 -267 -351 -408 -59 -106 -44 -55 23 81 163 329 457 518 830 534 17 0 71 -4 120 -10z m5 -99 c310 -45 554 -210 681 -461 54 -108 69 -174 68 -289 -2 -92 -2 -93 -9 -35 -5 33 -22 94 -39 135 -35 86 -36 84 -16 -25 25 -143 -5 -317 -80 -450 -46 -84 -82 -124 -171 -195 -95 -76 -183 -123 -317 -172 -109 -40 -115 -41 -242 -41 -122 0 -136 2 -230 34 -230 79 -376 203 -476 401 -60 120 -79 202 -78 343 0 117 4 142 54 315 6 20 2 18 -16 -10 -29 -46 -59 -124 -59 -156 0 -15 -4 -23 -11 -19 -7 5 -10 -16 -8 -64 1 -39 0 -74 -4 -77 -10 -10 4 -115 24 -172 24 -69 16 -81 -11 -17 -57 133 -61 184 -24 335 15 62 73 182 94 195 6 4 27 32 46 63 83 128 225 247 357 297 172 64 325 86 467 65z m-2555 -53 c-11 -8 -67 -40 -125 -72 -140 -77 -227 -126 -395 -222 -77 -44 -174 -98 -215 -120 -42 -23 -150 -83 -240 -135 -166 -96 -208 -119 -445 -245 -71 -39 -211 -114 -310 -168 -99 -54 -232 -126 -295 -160 -63 -34 -153 -83 -200 -110 -182 -102 -235 -129 -220 -111 27 34 322 216 635 393 452 255 488 274 740 410 72 39 166 90 210 114 136 73 859 438 870 439 5 0 1 -6 -10 -13z m1072 -179 c7 -35 24 -41 69 -22 20 8 38 13 40 11 16 -15 -180 -137 -220 -137 -11 0 -14 11 -11 48 2 26 -1 76 -6 111 -5 35 -8 65 -6 67 2 3 28 -18 58 -46 30 -27 55 -50 56 -50 9 0 -1 23 -32 76 l-35 59 41 -45 c22 -25 42 -57 46 -72z m-399 16 c28 -14 66 -44 83 -66 43 -54 109 -186 102 -204 -12 -32 -46 -8 -88 60 -80 133 -171 214 -195 175 -5 -7 -3 -28 6 -48 18 -44 11 -53 -11 -12 -8 17 -20 31 -24 31 -15 0 8 -68 60 -179 27 -58 48 -110 46 -115 -6 -15 -123 229 -138 286 -15 55 -6 73 45 87 48 14 58 13 114 -15z m3656 -15 c16 -12 26 -30 26 -45 0 -26 -117 -266 -149 -305 -12 -15 -24 -20 -35 -16 -15 6 -14 12 12 49 46 67 142 245 142 262 0 9 -12 21 -27 27 -22 8 -36 7 -68 -9 -33 -16 -49 -34 -85 -101 -79 -143 -77 -140 -100 -134 -12 3 -24 11 -27 18 -11 31 107 220 159 254 44 28 116 28 152 0z m-4491 -363 c25 -7 60 -24 77 -36 38 -27 90 -105 90 -134 0 -14 -8 -7 -28 25 -41 64 -94 106 -158 125 -107 31 -207 -10 -264 -108 -28 -48 -31 -59 -28 -128 2 -58 9 -88 31 -132 16 -32 26 -62 22 -67 -19 -33 -366 -253 -635 -404 -320 -180 -374 -206 -388 -194 -12 9 -9 16 18 38 60 51 318 200 565 329 237 122 391 208 404 223 7 9 3 28 -16 66 -22 44 -27 68 -27 135 -1 69 3 89 27 137 54 112 183 163 310 125z m5250 3 c159 -40 239 -230 164 -393 -15 -32 -27 -64 -27 -70 0 -29 50 -60 410 -256 195 -106 517 -287 529 -297 2 -1 2 -5 -1 -8 -5 -6 -130 39 -243 88 -145 62 -323 156 -527 277 -194 115 -293 160 -357 160 -58 0 -106 22 -153 70 -87 90 -92 217 -10 303 41 43 75 57 143 57 106 0 179 -61 179 -149 0 -85 -62 -143 -168 -157 -44 -6 -51 -10 -55 -33 -8 -38 9 -51 67 -51 57 1 118 19 146 45 53 48 79 159 56 240 -29 99 -109 158 -216 159 -102 1 -180 -50 -236 -152 -25 -47 -25 -47 -19 -12 8 48 46 103 98 139 71 48 139 61 220 40z m-3945 -75 c29 -20 28 -35 -5 -66 -31 -29 -167 -98 -195 -98 -21 0 -30 13 -22 34 10 27 166 143 194 146 3 0 16 -7 28 -16z m2728 -60 c129 -103 140 -131 36 -96 -63 21 -192 114 -192 137 0 15 27 34 48 35 7 0 55 -34 108 -76z m-4030 47 c61 -28 97 -80 102 -150 4 -51 1 -61 -23 -89 -29 -35 -100 -76 -115 -67 -5 3 -12 1 -15 -5 -5 -8 -11 -8 -20 0 -8 7 -19 9 -24 6 -5 -4 -13 -1 -16 5 -4 5 -13 8 -21 5 -9 -3 -17 2 -21 12 -7 20 -53 61 -69 62 -39 1 -66 89 -41 136 48 93 164 130 263 85z m4426 -37 c14 -9 -27 -124 -44 -124 -5 0 -40 17 -79 38 -60 32 -69 40 -67 62 3 21 10 26 43 32 40 6 132 1 147 -8z m2123 -284 c83 -47 233 -133 335 -190 101 -57 211 -118 245 -137 121 -68 380 -193 431 -208 28 -8 66 -15 83 -15 37 0 41 -15 6 -24 -76 -19 -293 76 -645 282 -343 201 -730 434 -737 444 -7 13 58 -22 282 -152z m-440 100 c113 -68 113 -69 85 -133 -13 -29 -27 -55 -30 -59 -6 -8 -143 73 -195 115 -27 23 -28 26 -16 53 22 50 41 74 57 74 9 0 53 -22 99 -50z m-7046 -17 c28 -35 36 -70 21 -88 -23 -27 -161 -115 -181 -115 -21 0 -79 81 -79 110 0 10 38 34 103 67 56 29 105 52 109 52 4 1 16 -11 27 -26z m5222 -142 c22 -18 23 -22 10 -43 -8 -13 -20 -32 -26 -43 -28 -52 -41 -65 -65 -65 -44 -1 -97 -26 -149 -69 -44 -37 -53 -41 -71 -31 -26 14 -23 22 28 98 22 31 47 72 56 90 12 23 22 32 33 28 8 -3 19 -3 25 0 16 10 97 11 101 0 2 -5 13 -3 26 4 l23 12 -28 19 c-26 17 -27 19 -8 19 12 0 32 -9 45 -19z m-3123 -28 c11 -16 45 -75 77 -133 76 -141 72 -138 137 -116 29 9 59 20 67 23 9 4 11 1 7 -6 -10 -15 -128 -74 -212 -106 -70 -26 -103 -27 -40 -1 48 20 48 46 1 46 -47 0 -81 19 -130 70 l-40 43 63 -48 c69 -53 94 -54 43 -1 -29 30 -30 34 -14 40 16 7 16 9 -7 26 -23 18 -23 20 -5 20 19 0 18 2 -4 19 -18 14 -21 20 -10 24 11 5 11 8 -3 20 -24 19 -22 42 5 55 17 8 18 11 5 11 -9 1 -20 -3 -23 -9 -3 -5 -18 -10 -33 -10 -25 1 -24 2 13 21 22 10 44 24 49 29 17 17 34 11 54 -17z m-745 -107 c-2 -13 -232 -131 -458 -236 -240 -110 -434 -208 -623 -311 -81 -45 -313 -171 -517 -281 -387 -210 -616 -339 -674 -382 -19 -14 -48 -26 -64 -26 -33 0 -89 30 -84 44 2 6 44 31 93 56 49 26 179 96 289 157 434 240 596 322 1210 610 88 42 237 114 330 161 389 195 504 243 498 208z m4410 -25 c170 -116 440 -267 1042 -581 193 -101 442 -232 555 -293 113 -61 266 -143 340 -181 74 -39 156 -86 182 -103 41 -29 48 -31 61 -18 9 8 19 29 23 47 10 48 57 163 136 332 49 105 68 157 66 180 -3 35 -3 35 -248 150 -86 40 -162 84 -208 120 -40 32 -71 60 -69 63 6 5 227 -98 392 -183 131 -67 175 -97 175 -119 0 -40 -83 -247 -187 -468 -35 -76 -63 -143 -60 -150 2 -7 13 7 25 30 12 23 27 45 33 48 16 11 -127 -266 -154 -295 -34 -38 -78 -67 -121 -78 -32 -9 -49 -8 -95 8 -72 26 -82 25 -47 -6 146 -128 -397 159 -791 418 -84 56 -153 104 -153 108 0 4 230 -107 511 -248 l511 -255 52 16 c62 20 127 72 151 123 16 34 16 38 -1 76 -34 75 -15 64 -799 466 -365 187 -654 341 -790 421 -44 26 -165 95 -270 152 -149 82 -203 117 -252 165 -56 54 -76 84 -57 84 3 0 24 -13 47 -29z m-4323 -56 c0 -23 -360 -275 -493 -344 -130 -68 -193 -46 -74 25 34 21 107 68 163 105 159 106 234 150 314 185 76 33 90 38 90 29z m4188 -2 c-42 -83 -253 -570 -353 -813 -37 -91 -99 -241 -137 -335 -38 -93 -73 -179 -78 -190 -5 -11 -60 -139 -123 -285 -268 -618 -338 -770 -359 -770 -13 0 -48 30 -48 41 0 5 30 61 66 126 112 199 226 451 458 1013 86 208 169 409 186 445 5 11 25 61 46 110 120 295 307 665 335 665 6 0 9 -3 7 -7z m-1338 -134 c-6 -57 -15 -196 -21 -309 -10 -205 -24 -287 -55 -321 -14 -15 -14 -20 -1 -46 8 -15 43 -53 77 -82 59 -52 63 -53 96 -43 32 10 35 8 48 -16 7 -15 17 -38 21 -52 4 -14 21 -37 37 -51 l31 -26 -22 -84 c-13 -46 -26 -88 -31 -92 -4 -5 -12 12 -18 36 -15 59 -85 162 -136 199 -23 17 -74 46 -114 64 -40 19 -75 40 -78 48 -3 8 2 42 10 76 9 34 16 66 16 71 0 5 -19 7 -42 3 l-43 -6 30 20 c27 17 74 88 64 95 -59 41 -82 66 -108 118 -29 58 -31 70 -31 169 l0 106 69 48 c39 26 100 78 137 117 37 38 69 67 71 66 1 -2 -2 -50 -7 -108z m1460 70 c41 -23 115 -68 165 -102 49 -33 141 -94 203 -135 61 -41 112 -79 112 -83 0 -18 -72 -8 -118 15 -114 58 -353 229 -427 305 -50 52 -31 52 65 0z m-6050 16 c0 -8 -114 -82 -272 -177 -275 -166 -534 -286 -559 -261 -15 15 12 33 191 131 204 111 295 157 480 243 143 67 160 73 160 64z m1905 -200 c54 -104 121 -241 150 -305 29 -63 66 -144 83 -180 102 -222 152 -331 152 -335 0 -11 273 -641 306 -708 20 -39 74 -156 120 -259 46 -103 104 -222 129 -265 l46 -78 -28 -22 c-15 -12 -30 -20 -34 -18 -4 3 -26 51 -49 107 -100 241 -189 447 -282 658 -83 186 -214 498 -333 790 -59 147 -150 348 -316 699 -45 94 -56 122 -45 110 2 -2 48 -89 101 -194z m1250 91 c2 -17 11 -112 20 -211 21 -233 32 -310 51 -346 31 -60 150 -114 394 -180 l145 -39 -75 6 c-157 11 -339 50 -390 83 -32 20 -43 34 -77 98 -15 28 -30 50 -34 47 -9 -5 4 -57 25 -107 10 -23 12 -36 5 -32 -35 22 -66 158 -74 320 -2 39 -8 124 -14 190 -6 66 -11 147 -11 180 1 55 2 58 15 41 8 -11 17 -33 20 -50z m180 -105 c89 -55 199 -98 331 -131 36 -9 41 -14 42 -38 1 -40 32 -323 38 -347 5 -20 29 -28 244 -85 19 -5 62 -10 95 -11 45 -1 54 -3 35 -9 -14 -4 -97 -8 -185 -9 -149 -1 -162 0 -178 19 -9 11 -23 20 -31 20 -8 0 -44 13 -79 29 -149 67 -250 153 -298 256 -15 33 -45 121 -65 195 -20 74 -40 143 -45 152 -5 10 -7 18 -5 18 3 0 48 -27 101 -59z m-1575 45 c0 -12 -354 -257 -461 -319 -91 -53 -108 -23 -26 46 75 64 182 130 336 209 126 64 151 74 151 64z m-1920 -78 c11 -18 20 -43 20 -55 0 -12 12 -36 26 -53 26 -30 26 -31 8 -45 -15 -11 -16 -17 -6 -23 7 -5 10 -16 6 -25 -4 -11 -1 -17 9 -17 40 0 22 -23 -40 -51 -48 -22 -77 -29 -98 -25 -50 10 -165 142 -165 189 0 24 37 67 57 67 7 0 42 16 79 35 36 19 70 35 75 35 5 0 18 -15 29 -32z m6164 -4 c163 -83 314 -178 411 -258 23 -19 27 -27 18 -37 -13 -13 -68 15 -237 119 -82 51 -286 199 -286 208 0 11 29 1 94 -32z m1869 5 c20 -11 37 -24 37 -29 0 -11 73 -50 94 -50 34 0 25 -25 -30 -82 -33 -32 -83 -75 -111 -94 -29 -19 -53 -39 -53 -45 0 -18 -77 -10 -104 12 -29 23 -33 41 -13 61 46 48 63 94 44 125 -4 7 1 14 14 18 11 4 18 13 15 20 -6 16 25 45 49 45 14 0 15 3 5 15 -7 8 -19 15 -27 15 -8 0 -11 5 -8 10 8 12 33 6 88 -21z m-6023 -103 c0 -8 -187 -145 -295 -216 -60 -40 -134 -84 -164 -97 l-54 -24 -21 20 c-11 11 -18 22 -15 25 19 18 271 163 387 222 132 68 162 81 162 70z m4033 -42 c29 -15 125 -67 215 -116 89 -50 181 -100 204 -112 54 -27 68 -50 46 -73 -15 -14 -22 -15 -60 -4 -59 18 -158 77 -275 164 -101 76 -204 166 -190 167 4 0 31 -12 60 -26z m-518 -86 l26 -12 -23 -17 c-20 -16 -21 -21 -11 -38 17 -27 3 -91 -48 -227 -45 -120 -220 -521 -309 -709 -108 -227 -295 -660 -324 -747 -3 -10 -9 -18 -13 -18 -14 0 -145 94 -156 111 -8 13 8 54 72 185 80 161 206 372 217 361 5 -5 -99 -262 -166 -411 -17 -38 -29 -74 -26 -80 5 -14 140 266 211 439 65 155 93 221 139 323 25 56 100 235 165 396 123 303 146 354 189 418 28 44 23 41 57 26z m3291 -46 c-8 -22 -59 -133 -115 -247 -56 -114 -101 -214 -101 -222 0 -32 23 5 86 135 37 75 91 189 122 252 30 63 57 110 59 104 4 -11 -176 -400 -227 -494 -19 -34 -32 -46 -54 -48 -25 -3 -27 -1 -21 20 17 56 250 538 260 538 2 0 -2 -17 -9 -38z m-7469 -171 c38 -44 58 -79 69 -119 8 -31 26 -83 40 -116 14 -32 23 -60 21 -62 -5 -5 -87 168 -87 183 0 7 -5 15 -11 19 -37 23 37 -177 202 -541 120 -266 840 -1718 867 -1748 14 -16 19 -15 91 24 42 23 90 51 106 64 102 75 292 171 502 254 153 61 215 96 321 184 121 99 177 137 237 158 69 24 67 24 105 -7 57 -48 90 -153 72 -231 -8 -37 -32 -51 -227 -140 -142 -65 -225 -95 -225 -83 0 10 121 145 158 177 35 29 21 41 -23 20 -19 -9 -35 -14 -35 -11 0 4 19 28 41 56 23 27 39 51 36 54 -3 3 -49 -20 -102 -51 -127 -73 -248 -134 -360 -180 -49 -20 -226 -104 -392 -186 l-301 -149 -85 0 c-56 0 -88 4 -94 13 -15 20 -60 129 -68 167 -4 19 -59 148 -123 285 -63 138 -134 294 -158 348 -24 53 -65 143 -90 200 -25 56 -74 167 -109 247 -113 261 -245 560 -390 880 -158 350 -158 349 -160 405 -1 22 -5 49 -9 61 -7 24 106 -85 181 -175z m-627 155 c-14 -14 -296 -196 -620 -401 -156 -98 -329 -197 -376 -215 -48 -19 -144 -48 -144 -44 0 2 26 17 58 33 31 16 66 37 77 46 20 16 20 16 -5 11 -24 -5 -24 -4 5 20 60 49 472 281 900 506 118 62 127 66 105 44z m6075 -94 c-8 -33 -26 -88 -39 -123 -22 -59 -164 -391 -217 -505 -73 -161 -145 -317 -207 -449 -38 -82 -107 -229 -152 -325 -103 -220 -230 -503 -321 -719 -84 -197 -132 -306 -150 -343 -13 -26 -18 -28 -79 -28 -51 0 -74 6 -105 24 -187 113 -644 335 -810 395 -160 58 -168 61 -172 57 -2 -2 16 -48 42 -102 46 -99 50 -124 18 -124 -9 0 -109 45 -220 100 -232 114 -217 96 -179 228 25 87 49 132 69 132 6 0 75 -34 152 -76 77 -41 228 -116 335 -165 241 -112 437 -213 600 -311 196 -117 249 -143 262 -130 9 9 4 20 -20 45 l-32 33 31 64 c17 36 40 88 51 115 11 28 37 88 58 135 22 47 88 198 149 335 290 661 457 1023 490 1060 26 30 80 124 152 265 82 163 219 415 254 468 27 41 28 42 42 22 12 -17 12 -28 -2 -78z m-160 19 c-24 -57 -299 -604 -315 -626 -7 -10 -124 -256 -238 -500 -33 -71 -139 -303 -235 -515 -210 -461 -238 -522 -243 -517 -6 6 225 523 416 932 54 116 139 298 188 405 177 383 438 896 450 885 2 -2 -8 -30 -23 -64z m-574 -18 c234 -146 354 -229 354 -243 0 -10 -12 -16 -32 -18 -19 -2 -33 -9 -33 -16 0 -18 -54 -136 -250 -541 -207 -429 -394 -837 -520 -1134 -122 -289 -147 -341 -164 -341 -32 0 -26 41 28 176 95 243 283 637 648 1363 137 271 247 499 244 506 -3 8 -33 33 -68 56 -121 82 -342 258 -324 259 5 0 57 -30 117 -67z m917 -181 c-162 -269 -235 -404 -446 -827 -169 -339 -320 -662 -452 -967 -35 -81 -65 -146 -67 -144 -10 9 135 349 306 718 258 558 457 939 699 1338 54 90 75 116 80 100 2 -6 -52 -104 -120 -218z m-4390 191 c11 -16 47 -93 80 -173 33 -80 77 -181 97 -225 21 -44 80 -183 132 -310 52 -126 135 -324 185 -439 49 -115 105 -250 124 -299 41 -107 43 -112 56 -99 11 11 -21 102 -127 352 -116 274 -187 452 -182 457 3 2 16 -15 29 -39 14 -24 51 -86 83 -138 68 -110 282 -544 291 -590 6 -25 1 -37 -22 -62 -27 -29 -125 -98 -139 -98 -4 0 -4 13 0 29 5 22 2 32 -11 39 -11 6 -13 11 -5 16 19 12 13 41 -28 128 -22 47 -74 163 -117 259 -42 96 -130 289 -195 430 -139 303 -238 536 -285 673 -19 55 -34 104 -34 108 0 20 50 6 68 -19z m4744 -69 c94 -47 264 -140 683 -372 44 -25 123 -67 175 -95 100 -54 103 -76 5 -32 -60 26 -77 26 -55 0 7 -9 11 -17 9 -20 -6 -6 -208 92 -301 145 -224 130 -638 406 -638 425 0 9 11 5 122 -51z m-2360 17 c12 -16 31 -44 41 -62 18 -33 19 -33 34 -14 8 11 21 37 30 58 8 20 20 37 25 37 6 0 8 -6 5 -14 -3 -8 -11 -34 -17 -58 -16 -62 -71 -211 -83 -226 -19 -25 -32 7 -33 86 0 52 -8 96 -22 136 -34 91 -26 113 20 57z m-1692 -107 c43 -93 46 -104 29 -104 -48 0 -219 -130 -219 -166 0 -8 -4 -14 -9 -14 -9 0 -81 162 -81 181 0 6 -7 24 -16 41 -15 30 -15 32 2 45 25 18 83 17 90 -2 10 -24 24 -17 24 11 0 14 4 23 10 19 6 -3 10 -29 10 -58 0 -44 2 -49 13 -37 8 8 29 50 47 93 19 42 39 77 46 77 7 0 31 -39 54 -86z m4892 -38 c122 -66 188 -110 188 -126 0 -5 -12 -13 -26 -16 -30 -8 -88 18 -217 94 -80 47 -103 72 -93 98 9 23 25 17 148 -50z m-7502 -11 c-7 -8 -29 -25 -49 -37 -20 -12 -80 -53 -133 -90 -115 -80 -275 -183 -452 -290 -205 -123 -448 -216 -470 -179 -8 13 28 36 243 155 91 51 218 121 281 157 105 58 579 299 588 299 3 0 -1 -7 -8 -15z m1590 -45 c-98 -84 -379 -290 -395 -290 -18 0 -27 28 -15 50 21 39 158 132 325 222 103 55 137 62 85 18z m-1285 -19 c-36 -34 -586 -380 -785 -493 -148 -85 -390 -197 -449 -208 -210 -40 151 184 864 534 171 83 321 157 335 163 31 14 47 16 35 4z m705 -176 c15 -33 76 -161 134 -284 59 -123 105 -229 103 -235 -4 -10 -165 305 -217 424 -13 30 -43 96 -66 147 -23 50 -45 102 -49 115 -7 28 56 -84 95 -167z m1847 135 c61 -26 96 -57 45 -39 -17 6 -41 9 -54 7 -19 -3 -13 -8 33 -31 31 -15 60 -37 66 -49 23 -52 41 -120 36 -139 -5 -17 -9 -15 -30 20 -14 24 -44 52 -71 68 -98 58 -251 28 -338 -67 -35 -38 -39 -46 -36 -89 7 -104 41 -164 120 -213 30 -18 51 -23 112 -22 111 0 187 47 225 138 20 47 31 41 15 -9 -27 -81 -112 -143 -210 -152 -80 -8 -140 11 -196 60 -63 56 -87 107 -82 174 3 29 1 53 -4 53 -15 0 -8 31 14 72 25 44 123 114 208 150 42 17 48 23 35 31 -48 27 -203 -37 -262 -109 -43 -51 -56 -56 -42 -15 16 44 99 126 165 160 53 28 66 31 129 28 44 -3 90 -12 122 -27z m2383 -33 c60 -34 198 -146 205 -167 9 -28 -2 -42 -23 -31 -10 5 -50 38 -88 73 -39 35 -103 86 -142 113 -39 28 -74 55 -76 62 -5 12 61 -15 124 -50z m-1233 7 c41 -21 88 -53 109 -76 48 -53 84 -133 83 -183 l-1 -40 -12 46 c-31 111 -91 186 -188 235 -45 23 -61 26 -118 22 -117 -9 -209 -70 -276 -183 -35 -61 -42 -50 -11 18 53 115 171 189 316 196 14 0 57 -15 98 -35z m-60 -59 c122 -36 198 -141 198 -270 -1 -157 -105 -274 -245 -275 -74 0 -121 15 -172 53 -45 34 -108 128 -108 160 0 29 14 18 65 -52 26 -35 42 -60 36 -56 -20 12 -11 -11 12 -33 42 -40 115 -65 171 -59 54 5 106 25 106 39 0 4 -19 6 -42 2 l-43 -5 45 21 c51 24 105 72 126 112 34 65 2 196 -63 260 -44 43 -90 64 -160 74 -57 7 -115 -14 -167 -60 -34 -31 -40 -32 -27 -8 13 23 60 67 90 82 63 32 107 36 178 15z m-2772 -216 c22 -46 48 -95 57 -108 10 -13 18 -29 18 -35 0 -16 111 -243 405 -831 261 -520 325 -656 325 -694 0 -27 -39 -54 -57 -39 -7 6 -13 14 -13 18 0 5 -101 212 -224 462 -124 249 -245 507 -271 573 -50 129 -90 227 -166 400 -55 128 -163 398 -173 435 -9 31 46 -68 99 -181z m5381 97 c128 -63 289 -147 776 -405 96 -50 95 -64 -1 -32 -73 25 -77 26 -60 4 12 -15 12 -16 -6 -11 -87 26 -262 116 -470 241 -100 61 -349 224 -394 259 -49 38 9 17 155 -56z m-6262 23 c-7 -12 -222 -154 -394 -261 -58 -36 -171 -106 -251 -156 -164 -102 -329 -187 -436 -226 -178 -63 -32 47 422 319 120 72 640 334 663 335 2 0 0 -5 -4 -11z m5990 -145 c-59 -148 -200 -439 -294 -604 -39 -69 -123 -224 -187 -345 -64 -121 -166 -314 -228 -430 -62 -115 -142 -270 -179 -343 -60 -119 -86 -155 -102 -139 -5 5 126 269 214 432 21 39 66 124 101 190 69 130 331 610 390 715 64 114 226 441 277 559 63 147 69 120 8 -35z m-5839 -54 c119 -264 214 -448 395 -765 57 -99 146 -261 200 -360 53 -99 150 -277 215 -395 167 -306 159 -290 137 -290 -12 0 -27 19 -46 58 -15 31 -55 107 -88 167 -34 61 -89 162 -123 225 -34 63 -71 131 -82 150 -11 19 -76 139 -145 265 -69 127 -151 273 -182 325 -31 52 -76 136 -100 185 -24 50 -60 124 -80 165 -59 119 -187 423 -186 440 1 10 34 -56 85 -170z m2898 143 c9 -50 5 -338 -6 -350 -6 -9 -38 -13 -93 -13 l-84 0 0 195 0 195 89 0 89 0 5 -27z m3033 -149 c121 -50 707 -352 762 -392 35 -26 75 -53 89 -60 33 -19 22 -27 -18 -13 -48 17 -55 14 -29 -14 29 -31 28 -31 -51 0 -97 39 -125 55 -452 249 -52 32 -310 204 -337 225 -30 25 -16 27 36 5z m-6081 -35 c-13 -21 -782 -523 -853 -557 -110 -52 -218 -56 -154 -5 85 68 345 230 537 336 145 79 445 229 473 236 2 1 0 -4 -3 -10z m6238 -299 c362 -179 607 -313 594 -326 -2 -2 -27 6 -56 17 -30 11 -55 18 -58 15 -2 -2 8 -16 24 -31 l28 -26 -70 26 c-141 52 -785 452 -732 455 5 0 126 -58 270 -130z m-6083 116 c0 -15 -495 -336 -702 -454 -160 -93 -315 -150 -332 -124 -9 15 34 46 250 178 171 105 587 323 724 380 62 26 60 25 60 20z m55 -211 c-52 -43 -375 -260 -499 -335 -193 -116 -446 -234 -464 -215 -24 25 329 243 713 442 44 23 118 62 165 87 95 51 132 60 85 21z m5965 -135 c246 -122 585 -308 577 -316 -2 -2 -32 5 -66 17 -70 22 -84 20 -55 -12 18 -20 18 -20 -11 -14 -79 18 -333 158 -515 284 -118 81 -234 170 -238 182 -6 14 23 1 308 -141z m-3619 79 c3 -8 19 -43 35 -78 28 -62 58 -96 76 -85 5 3 2 15 -8 25 -18 20 -6 27 14 7 25 -25 11 17 -23 72 -19 30 -35 58 -35 62 0 12 58 10 81 -2 25 -14 79 -108 79 -138 0 -25 -47 -77 -81 -87 -24 -8 -70 23 -89 62 -8 15 -32 58 -53 95 -21 37 -35 72 -32 78 9 14 26 8 36 -11z m1043 -46 c-8 -21 -29 -73 -46 -116 -16 -43 -36 -81 -43 -83 -28 -11 -125 55 -125 85 0 28 37 77 74 99 l36 21 0 -24 c0 -34 18 -41 29 -12 15 39 31 43 20 5 -11 -40 -11 -41 1 -33 5 3 18 26 29 50 11 25 25 45 31 45 6 0 4 -14 -6 -37z m-3324 -87 c0 -7 -394 -277 -535 -366 -154 -98 -252 -146 -320 -155 l-50 -7 30 31 c72 77 332 233 663 399 199 100 212 106 212 98z m5810 -133 c191 -98 395 -217 489 -284 l54 -39 -52 0 c-99 0 -331 127 -618 338 -73 53 -133 100 -133 105 0 11 59 -16 260 -120z m-2455 -84 c156 -87 254 -161 171 -129 -15 5 -34 10 -43 10 -13 0 -14 -2 -2 -17 10 -12 -2 -8 -35 10 -50 28 -86 35 -86 17 0 -5 4 -10 8 -10 4 0 23 -14 42 -30 l35 -31 -52 26 c-29 14 -59 25 -67 25 -8 0 -49 16 -90 35 -82 38 -91 40 -81 25 4 -6 57 -36 118 -67 110 -54 182 -103 155 -103 -8 0 -19 5 -26 12 -9 9 -12 9 -12 0 0 -7 4 -12 10 -12 5 0 9 -11 8 -25 -1 -14 -8 -25 -16 -25 -7 0 -72 26 -143 57 l-129 57 0 70 0 69 53 48 c28 27 57 48 62 48 6 1 60 -27 120 -60z m-955 -10 c24 -31 34 -55 38 -90 l4 -47 -83 -63 c-85 -63 -167 -106 -223 -116 l-31 -5 35 31 c33 30 33 32 10 27 -24 -5 -24 -5 -5 10 11 8 19 21 17 29 -3 16 26 37 141 100 79 44 104 65 77 65 -5 0 -53 -22 -107 -48 -126 -62 -171 -82 -186 -82 -6 0 -1 7 11 16 57 39 -4 47 -78 9 -28 -14 -50 -24 -50 -21 0 2 28 22 63 45 34 22 91 61 127 86 78 55 156 95 185 95 13 0 35 -16 55 -41z m-2335 22 c-6 -5 -75 -54 -155 -109 -191 -132 -427 -277 -490 -302 -28 -11 -73 -31 -100 -45 -110 -56 -81 -15 57 81 128 88 649 381 683 383 8 1 10 -2 5 -8z m5846 -241 c129 -76 253 -150 275 -165 l39 -28 -51 6 c-29 3 -74 16 -100 28 -103 48 -512 314 -569 371 -33 33 153 -64 406 -212z m-3045 33 c-24 -32 -54 -80 -66 -108 l-22 -50 -22 61 c-13 34 -32 78 -44 98 -12 21 -22 39 -22 41 0 8 40 13 128 14 l93 1 -45 -57z m2679 -74 c192 -98 513 -280 574 -326 15 -11 -14 -10 -69 3 -99 23 -247 106 -510 287 -176 121 -175 128 5 36z m-5480 43 c-21 -19 -256 -183 -345 -242 -97 -63 -288 -165 -296 -157 -9 8 91 89 186 151 88 58 182 112 370 215 70 38 107 52 85 33z m155 -146 c0 -18 -325 -228 -484 -313 -78 -41 -145 -79 -151 -83 -14 -10 -45 -20 -45 -15 0 18 203 169 310 231 78 44 352 184 363 184 4 0 7 -2 7 -4z m5218 -86 c75 -38 187 -98 249 -132 62 -35 144 -80 183 -101 67 -36 91 -59 76 -74 -23 -24 -298 106 -471 222 -118 79 -208 154 -187 155 7 0 75 -31 150 -70z m-5053 -56 c-43 -36 -268 -184 -350 -231 -139 -79 -325 -173 -325 -163 0 15 147 127 240 183 94 56 444 237 457 237 4 -1 -5 -12 -22 -26z m5200 -247 c291 -175 320 -197 262 -197 -71 0 -509 265 -652 394 -40 37 -40 37 75 -20 63 -31 205 -111 315 -177z m-2925 204 c0 -24 -181 -140 -368 -236 -52 -26 -141 -74 -199 -106 -97 -55 -109 -59 -166 -58 l-62 0 60 29 c33 16 148 71 255 123 188 90 388 199 439 238 26 20 41 24 41 10z m429 -83 c86 -51 255 -143 376 -205 l220 -112 -71 -1 c-71 0 -74 1 -298 111 -264 128 -331 166 -374 210 -32 33 -45 89 -20 89 6 0 82 -41 167 -92z m-2639 -62 c-8 -8 -99 -71 -202 -140 -182 -122 -232 -146 -293 -146 l-30 1 30 24 c35 29 486 275 504 275 3 0 -1 -6 -9 -14z m4795 -108 c61 -33 155 -86 210 -117 l100 -56 -49 -3 c-36 -2 -61 3 -100 22 -58 30 -279 184 -316 223 l-25 25 35 -17 c19 -10 85 -44 145 -77z"/>
<path d="M7582 11211 c-74 -19 -201 -77 -237 -109 -33 -30 -79 -82 -73 -82 3 0 25 16 48 35 63 53 193 111 290 131 212 42 495 -37 640 -179 56 -54 130 -160 157 -225 9 -20 18 -32 20 -26 6 18 -73 164 -118 219 -53 65 -167 150 -248 187 -149 68 -326 86 -479 49z"/>
<path d="M7612 10935 c-123 -28 -232 -117 -273 -223 -28 -75 -22 -177 15 -257 71 -155 294 -281 461 -260 86 10 195 71 263 145 12 14 39 54 60 90 36 63 37 68 37 165 0 95 -2 103 -34 163 -49 90 -103 134 -198 162 -98 29 -242 36 -331 15z m238 -76 c0 -6 9 -9 20 -6 11 3 18 2 15 -3 -3 -4 7 -11 21 -14 14 -4 43 -18 65 -31 21 -14 42 -25 46 -25 14 0 54 -68 69 -116 8 -26 14 -70 14 -99 0 -134 -129 -259 -296 -288 -168 -29 -352 92 -386 253 -22 106 33 215 139 277 28 16 80 32 146 43 125 22 147 23 147 9z"/>
<path d="M7307 10845 c-33 -30 -61 -55 -64 -55 -3 0 -12 -8 -19 -17 -8 -11 -13 -13 -14 -5 0 6 -4 12 -9 12 -10 0 -27 -62 -40 -145 -10 -59 -6 -68 11 -29 l13 28 6 -49 c16 -131 49 -224 49 -139 0 63 28 218 50 277 11 29 36 79 55 111 52 87 45 89 -38 11z"/>
<path d="M8218 10670 c4 -36 6 -96 5 -134 -5 -202 -206 -366 -448 -366 -192 0 -385 107 -449 249 -15 33 -31 63 -35 66 -18 11 11 -84 51 -165 71 -145 184 -232 338 -260 84 -15 89 -19 49 -41 l-34 -18 101 -1 c137 0 213 23 285 88 61 54 109 125 109 160 0 13 14 58 31 100 17 43 34 98 39 123 11 58 -4 167 -30 223 l-20 41 8 -65z"/>
<path d="M8445 10685 c14 -59 17 -229 5 -285 -48 -214 -211 -380 -445 -453 -89 -28 -208 -47 -288 -47 -160 1 -341 70 -439 168 -66 64 -83 49 -21 -19 60 -66 191 -141 295 -169 75 -21 258 -30 371 -20 176 17 290 71 405 195 105 112 152 246 152 428 -1 88 -20 211 -35 225 -4 4 -4 -6 0 -23z"/>
<path d="M4001 6039 c-214 -24 -375 -91 -487 -203 -123 -123 -134 -187 -134 -771 0 -568 12 -643 122 -761 132 -140 319 -208 613 -221 317 -14 574 58 719 200 77 76 113 147 126 247 12 98 12 972 0 1070 -23 175 -136 300 -341 377 -48 18 -126 39 -175 48 -112 20 -333 27 -443 14z m249 -337 c20 -16 24 -32 32 -133 5 -63 8 -330 6 -594 -4 -451 -5 -483 -24 -520 -14 -29 -28 -42 -52 -49 -42 -12 -107 7 -124 37 -10 17 -14 151 -16 572 -2 303 0 574 3 604 9 74 37 101 103 101 33 0 57 -6 72 -18z"/>
<path d="M7574 6040 c-210 -22 -386 -91 -470 -183 -59 -65 -81 -121 -96 -248 -27 -229 41 -394 207 -501 33 -22 170 -93 305 -159 135 -66 268 -134 297 -151 75 -45 95 -88 100 -207 4 -84 2 -100 -17 -129 -33 -54 -102 -74 -169 -51 -50 17 -56 38 -61 219 l-5 165 -317 3 -318 2 0 -132 c0 -248 46 -362 180 -448 216 -139 642 -180 977 -95 202 51 321 135 362 255 31 89 39 263 18 382 -41 236 -129 313 -603 528 -109 50 -214 101 -234 115 -48 34 -71 76 -77 144 -10 112 31 171 119 171 27 0 58 -4 68 -10 28 -15 40 -65 40 -171 l0 -99 320 0 320 0 0 92 c0 105 -15 205 -40 263 -45 105 -207 191 -435 230 -109 19 -360 27 -471 15z"/>
<path d="M11371 6039 c-214 -24 -375 -91 -487 -203 -123 -123 -134 -187 -134 -771 0 -568 12 -643 122 -761 132 -140 319 -208 613 -221 317 -14 574 58 719 200 77 76 113 147 126 247 12 98 12 972 0 1070 -23 175 -136 300 -341 377 -48 18 -126 39 -175 48 -112 20 -333 27 -443 14z m249 -337 c20 -16 24 -32 32 -133 5 -63 8 -330 6 -594 -4 -451 -5 -483 -24 -520 -14 -29 -28 -42 -52 -49 -42 -12 -107 7 -124 37 -10 17 -14 151 -16 572 -2 303 0 574 3 604 9 74 37 101 103 101 33 0 57 -6 72 -18z"/>
<path d="M1547 6003 c-4 -3 -7 -429 -7 -945 l0 -938 345 0 345 0 0 395 0 395 105 0 105 0 0 -395 0 -395 340 0 340 0 0 945 0 945 -340 0 -340 0 -2 -337 -3 -338 -100 0 -100 0 -5 335 -5 335 -336 3 c-184 1 -338 -1 -342 -5z"/>
<path d="M5227 6003 c-10 -10 -8 -1354 3 -1462 16 -165 89 -270 240 -346 144 -71 280 -102 495 -111 436 -18 736 115 812 362 17 55 18 110 18 809 l0 750 -342 3 -342 2 -3 -767 c-2 -634 -5 -773 -17 -795 -28 -55 -126 -61 -159 -10 -16 24 -17 91 -22 797 l-5 770 -336 3 c-184 1 -338 -1 -342 -5z"/>
<path d="M8797 6003 c-4 -3 -7 -429 -7 -945 l0 -938 598 2 597 3 3 188 2 187 -255 0 -255 0 0 205 0 205 215 0 215 0 0 180 0 180 -215 0 -215 0 0 180 0 180 230 0 230 0 0 190 0 190 -568 0 c-313 0 -572 -3 -575 -7z"/>
<path d="M12607 6003 c-4 -3 -7 -429 -7 -945 l0 -938 345 0 345 0 0 395 0 395 210 0 210 0 0 180 0 180 -210 0 -210 0 0 180 0 180 240 0 240 0 -2 188 -3 187 -576 3 c-316 1 -579 -1 -582 -5z"/>
<path d="M3025 3893 c-16 -8 -41 -25 -54 -37 -46 -41 -51 -70 -51 -311 0 -202 2 -230 19 -263 10 -20 27 -45 38 -54 74 -67 252 -62 315 8 43 48 48 84 48 311 0 271 -12 305 -113 348 -48 20 -163 19 -202 -2z m129 -125 c8 -30 8 -397 0 -437 -7 -34 -37 -43 -48 -15 -8 21 -8 459 1 467 14 15 41 6 47 -15z"/>
<path d="M5365 3893 c-16 -8 -41 -25 -54 -37 -46 -41 -51 -70 -51 -311 0 -202 2 -230 19 -263 10 -20 27 -45 38 -54 74 -67 252 -62 315 8 43 48 48 84 48 311 0 271 -12 305 -113 348 -48 20 -163 19 -202 -2z m129 -125 c8 -30 8 -397 0 -437 -7 -34 -37 -43 -48 -15 -8 21 -8 459 1 467 14 15 41 6 47 -15z"/>
<path d="M7765 3891 c-46 -21 -79 -54 -94 -94 -14 -36 -14 -449 -1 -497 12 -43 62 -93 109 -109 42 -14 134 -14 182 -1 48 13 107 74 116 119 4 20 7 65 8 101 l0 65 -90 0 -90 0 -5 -85 c-4 -73 -8 -85 -24 -88 -10 -2 -22 2 -27 10 -10 15 -12 438 -3 462 3 9 17 16 30 16 23 0 23 -3 26 -97 l3 -98 93 -3 92 -3 0 68 c-1 139 -24 192 -100 231 -57 29 -166 30 -225 3z"/>
<path d="M10115 3891 c-46 -21 -79 -54 -94 -94 -14 -36 -14 -449 -1 -497 12 -43 62 -93 109 -109 42 -14 134 -14 182 -1 48 13 107 74 116 119 4 20 7 65 8 101 l0 65 -90 0 -90 0 -5 -85 c-4 -73 -8 -85 -24 -88 -10 -2 -22 2 -27 10 -10 15 -12 438 -3 462 3 9 17 16 30 16 23 0 23 -3 26 -97 l3 -98 93 -3 92 -3 0 68 c-1 139 -24 192 -100 231 -57 29 -166 30 -225 3z"/>
<path d="M13440 3888 c-65 -33 -82 -71 -78 -178 4 -105 17 -127 126 -203 96 -67 103 -76 110 -132 5 -49 -8 -75 -38 -75 -23 0 -30 20 -30 86 l0 54 -85 0 -85 0 0 -47 c1 -112 43 -180 126 -203 65 -18 173 -8 219 20 49 30 65 72 65 170 0 127 -20 158 -151 245 -78 51 -91 71 -87 123 3 32 6 37 28 37 23 0 25 -5 30 -50 l5 -50 80 0 80 0 -2 68 c-1 42 -7 77 -17 91 -42 66 -205 89 -296 44z"/>
<path d="M1560 3545 l0 -355 80 0 80 0 0 217 c0 119 2 214 5 212 2 -3 16 -88 30 -189 37 -268 27 -241 93 -238 l56 3 27 200 c14 110 29 209 32 220 2 11 5 -80 6 -202 l1 -223 80 0 80 0 0 355 0 355 -120 0 c-66 0 -120 -1 -120 -2 -1 -24 -40 -291 -43 -294 -2 -3 -7 12 -10 33 -3 21 -13 89 -22 151 l-17 112 -119 0 -119 0 0 -355z"/>
<path d="M4100 3830 l0 -70 55 0 55 0 0 -285 0 -285 90 0 90 0 2 283 3 282 53 3 52 3 0 70 0 69 -200 0 -200 0 0 -70z"/>
<path d="M6460 3546 l0 -357 93 3 92 3 3 158 c2 119 6 157 15 157 32 0 37 -24 37 -172 l0 -148 85 0 85 0 0 149 c0 146 -1 150 -26 180 -14 17 -32 31 -40 31 -8 0 -14 5 -14 10 0 6 8 10 18 10 38 0 57 37 60 120 3 61 0 87 -16 123 -31 70 -58 80 -239 85 l-153 4 0 -356z"/>
<path d="M8834 3883 c3 -10 33 -112 66 -227 59 -208 60 -211 60 -338 l0 -128 85 0 85 0 0 132 0 131 65 217 c36 119 65 220 65 223 0 4 -37 7 -83 7 l-84 0 -24 -132 -25 -133 -12 68 c-7 37 -17 96 -23 132 l-11 65 -85 0 c-76 0 -84 -2 -79 -17z"/>
<path d="M11230 3545 l0 -356 148 3 147 3 3 68 3 67 -56 0 -55 0 0 285 0 285 -95 0 -95 0 0 -355z"/>
<path d="M12280 3545 l0 -355 160 0 160 0 0 70 0 70 -65 0 -65 0 0 80 0 80 55 0 55 0 0 65 0 65 -55 0 -55 0 0 70 0 70 60 0 60 0 0 70 0 70 -155 0 -155 0 0 -355z"/>
<path d="M3895 2919 c140 -45 396 -107 613 -148 194 -37 197 -38 195 -62 -2 -13 -4 -69 -5 -124 -4 -129 7 -149 83 -159 52 -7 84 -30 129 -95 13 -18 53 -28 270 -70 140 -28 313 -59 385 -71 71 -11 140 -27 152 -35 23 -15 36 -54 48 -139 9 -69 39 -96 105 -96 31 0 66 8 89 19 l38 20 -19 57 c-11 33 -18 76 -16 103 l3 46 28 -76 c40 -109 50 -121 99 -117 32 2 43 -1 52 -17 99 -172 192 -290 332 -425 302 -289 571 -443 925 -530 474 -116 968 -30 1380 238 243 159 416 335 600 608 l68 101 62 7 c34 4 80 16 102 28 31 15 51 19 96 14 31 -3 106 -8 167 -12 171 -10 204 8 204 111 0 58 16 90 54 109 17 9 108 30 201 47 228 40 283 59 337 115 33 34 50 44 75 44 57 0 63 34 50 290 -2 35 -2 35 53 43 220 34 591 120 765 177 l90 29 -3950 0 -3950 -1 90 -29z m5639 -366 c-11 -83 -26 -155 -40 -190 l-14 -38 4 45 c3 25 8 70 12 100 4 30 4 53 1 50 -3 -3 -28 -73 -56 -156 -86 -261 -187 -460 -325 -648 -72 -97 -100 -117 -43 -31 213 321 323 562 364 794 9 53 21 99 27 103 6 4 25 8 43 8 31 0 32 -1 27 -37z m-3336 21 l60 -7 17 -71 c25 -103 81 -258 122 -340 59 -116 183 -294 183 -261 0 4 -25 47 -55 95 -86 137 -151 287 -189 436 -27 106 -16 94 23 -26 60 -184 142 -343 249 -485 247 -326 589 -552 950 -627 140 -29 445 -32 588 -5 572 106 1016 563 1158 1192 20 86 26 100 45 103 27 4 27 -8 1 -118 -51 -212 -159 -464 -264 -615 -214 -306 -513 -518 -851 -604 -244 -61 -619 -51 -855 24 -270 85 -486 208 -740 423 -79 68 -119 93 -89 55 31 -37 240 -220 329 -287 52 -39 142 -99 199 -134 58 -34 108 -65 111 -69 13 -14 -56 15 -173 73 -209 105 -398 241 -534 387 -116 124 -236 326 -303 507 -31 84 -90 308 -90 342 0 20 13 22 108 12z m2802 -28 c0 -33 -64 -206 -105 -283 -62 -118 -108 -183 -187 -268 -93 -99 -220 -194 -341 -254 -55 -27 -95 -51 -89 -55 16 -9 181 23 276 55 195 65 375 185 481 320 66 86 148 249 200 399 25 72 34 91 29 60 -21 -146 -153 -442 -267 -605 -97 -137 -213 -251 -348 -343 -142 -96 -404 -198 -584 -228 -185 -30 -457 -20 -615 23 -371 101 -660 314 -846 623 -68 113 -190 396 -182 422 2 5 20 -31 41 -79 48 -115 105 -200 194 -293 176 -185 451 -328 719 -375 115 -20 556 -20 664 -1 110 21 253 71 348 122 275 150 456 371 548 669 15 50 32 93 38 97 17 12 26 9 26 -6z m-2213 -6 c26 0 33 -5 42 -31 6 -18 11 -44 11 -58 0 -14 21 -64 45 -110 25 -46 44 -85 43 -87 -7 -6 -86 117 -125 196 -52 103 -45 58 8 -59 144 -312 440 -562 749 -633 112 -25 336 -30 435 -9 364 77 677 327 806 646 20 50 40 105 44 123 5 25 12 32 30 32 l24 0 -15 -52 c-126 -430 -476 -724 -932 -785 -347 -46 -667 59 -922 303 -126 120 -229 276 -295 445 -31 79 -32 93 -2 85 12 -3 36 -6 54 -6z m1729 -26 c-14 -53 -77 -168 -127 -229 -86 -107 -226 -194 -369 -231 -80 -21 -289 -24 -375 -5 -122 27 -270 110 -382 215 -69 64 -114 122 -163 209 l-32 57 39 0 c36 0 39 -3 68 -58 41 -80 172 -209 260 -256 86 -46 213 -83 325 -96 l85 -9 -95 4 c-111 5 -213 30 -301 73 -35 17 -65 29 -68 27 -11 -12 50 -59 120 -94 148 -74 409 -94 559 -42 138 48 265 146 341 264 22 33 37 62 35 64 -2 3 -46 -38 -98 -89 -101 -102 -186 -155 -294 -183 -90 -23 -97 -17 -14 13 94 34 152 68 217 127 54 48 138 156 168 215 22 43 31 50 74 50 31 0 33 -2 27 -26z"/>
</g>
<script xmlns=""/><link xmlns=""/></svg>